<svg viewBox="0 0 400 320" xmlns="http://www.w3.org/2000/svg">
  <!-- Background -->
  <rect width="400" height="320" fill="#F8F9FA" rx="8"/>

  <!-- Title -->
  <text x="200" y="30" font-size="16" font-weight="bold" text-anchor="middle" fill="#1F2937">DIY vs Our System</text>

  <!-- DIY Side (Left) -->
  <g id="diy-section">
    <!-- Header -->
    <rect x="20" y="50" width="160" height="40" fill="#EF4444" opacity="0.1" rx="4"/>
    <text x="100" y="78" font-size="13" font-weight="bold" text-anchor="middle" fill="#1F2937">❌ DIY (You)</text>

    <!-- Items -->
    <g id="diy-items">
      <!-- Item 1 -->
      <circle cx="40" cy="115" r="4" fill="#EF4444"/>
      <text x="55" y="120" font-size="11" fill="#374151">Takes 2-4 months</text>

      <!-- Item 2 -->
      <circle cx="40" cy="145" r="4" fill="#EF4444"/>
      <text x="55" y="150" font-size="11" fill="#374151">No guarantee</text>

      <!-- Item 3 -->
      <circle cx="40" cy="175" r="4" fill="#EF4444"/>
      <text x="55" y="180" font-size="11" fill="#374151">Trial & error</text>

      <!-- Item 4 -->
      <circle cx="40" cy="205" r="4" fill="#EF4444"/>
      <text x="55" y="210" font-size="11" fill="#374151">Inconsistent results</text>

      <!-- Item 5 -->
      <circle cx="40" cy="235" r="4" fill="#EF4444"/>
      <text x="55" y="240" font-size="11" fill="#374151">$5000+ wasted</text>

      <!-- Item 6 -->
      <circle cx="40" cy="265" r="4" fill="#EF4444"/>
      <text x="55" y="270" font-size="11" fill="#374151">Full-time job</text>
    </g>
  </g>

  <!-- Our System Side (Right) -->
  <g id="system-section">
    <!-- Header -->
    <rect x="220" y="50" width="160" height="40" fill="#10B981" opacity="0.1" rx="4"/>
    <text x="300" y="78" font-size="13" font-weight="bold" text-anchor="middle" fill="#1F2937">✓ Our System</text>

    <!-- Items -->
    <g id="system-items">
      <!-- Item 1 -->
      <circle cx="240" cy="115" r="4" fill="#10B981"/>
      <text x="255" y="120" font-size="11" fill="#374151">5 calls in 5 days</text>

      <!-- Item 2 -->
      <circle cx="240" cy="145" r="4" fill="#10B981"/>
      <text x="255" y="150" font-size="11" fill="#374151">100% guaranteed</text>

      <!-- Item 3 -->
      <circle cx="240" cy="175" r="4" fill="#10B981"/>
      <text x="255" y="180" font-size="11" fill="#374151">Proven system</text>

      <!-- Item 4 -->
      <circle cx="240" cy="205" r="4" fill="#10B981"/>
      <text x="255" y="210" font-size="11" fill="#374151">Immediate results</text>

      <!-- Item 5 -->
      <circle cx="240" cy="235" r="4" fill="#10B981"/>
      <text x="255" y="240" font-size="11" fill="#374151">Only $499</text>

      <!-- Item 6 -->
      <circle cx="240" cy="265" r="4" fill="#10B981"/>
      <text x="255" y="270" font-size="11" fill="#374151">15 min setup</text>
    </g>
  </g>

  <!-- Bottom CTA -->
  <rect x="60" y="290" width="280" height="22" fill="#FF6B35" rx="4"/>
  <text x="200" y="307" font-size="12" font-weight="bold" text-anchor="middle" fill="white">Stop guessing. Start getting calls.</text>
</svg>